<?xml version="1.0" encoding="utf-8"?>
<!-- Generator: Adobe Illustrator 22.1.0, SVG Export Plug-In . SVG Version: 6.00 Build 0)  -->
<svg version="1.1" id="Layer_1" xmlns="http://www.w3.org/2000/svg" xmlns:xlink="http://www.w3.org/1999/xlink" x="0px" y="0px"
	 viewBox="0 0 150 150" style="enable-background:new 0 0 150 150;" xml:space="preserve">
<style type="text/css">
	.st0{fill:#1A297E;}
	.st1{fill:#FFFFFF;}
	.st2{fill:#EDEDED;}
</style>
<rect class="st0" width="150" height="150"/>
<g>
	<g>
		<polyline class="st1" points="122.1,102.2 101.7,90.4 75.1,105.7 48.5,90.4 48.5,59.7 28,47.9 28,102.2 75.1,129.4 122.1,102.2 		
			"/>
		<g>
			<polygon class="st2" points="100.5,91.1 120.9,102.9 122.1,102.2 122.1,102.2 101.7,90.4 			"/>
			<polygon class="st2" points="28,49.3 48.5,61.1 48.5,59.7 28,47.9 			"/>
		</g>
		<polygon class="st1" points="122.1,47.9 75.1,20.7 48.6,36 69,47.8 75.1,44.3 101.7,59.7 101.7,66.6 122.1,78.4 		"/>
		<polygon class="st1" points="22.1,20.7 22.1,44.4 122.1,102.2 122.1,78.4 		"/>
	</g>
</g>
</svg>
